HIERARCHY
ROOT joint_Root
{
	OFFSET 0.0 0.0 0.0
	CHANNELS 6 Xposition Yposition Zposition Zrotation Xrotation Yrotation 
	JOINT Hips
	{
		OFFSET -0.726466 93.3139 -2.00062
		CHANNELS 6 Xposition Yposition Zposition Zrotation Xrotation Yrotation 
		JOINT Spine
		{
			OFFSET 15.7357 0.0 0.0
			CHANNELS 6 Xposition Yposition Zposition Zrotation Xrotation Yrotation 
			JOINT Chest
			{
				OFFSET 8.98455 -0.406207 0.0
				CHANNELS 6 Xposition Yposition Zposition Zrotation Xrotation Yrotation 
				JOINT Neck
				{
					OFFSET 16.3773 0.0 0.0
					CHANNELS 6 Xposition Yposition Zposition Zrotation Xrotation Yrotation 
					JOINT Head
					{
						OFFSET 6.45672 0.0 0.0
						CHANNELS 6 Xposition Yposition Zposition Zrotation Xrotation Yrotation 
						End Site
						{
							OFFSET 0.0 0.0 0.0
						}
					}
				}
				JOINT Shoulder_L
				{
					OFFSET 12.9942 -0.242716 4.98039
					CHANNELS 6 Xposition Yposition Zposition Zrotation Xrotation Yrotation 
					JOINT UpperArm_L
					{
						OFFSET 5.34809 0.0 0.0
						CHANNELS 6 Xposition Yposition Zposition Zrotation Xrotation Yrotation 
						JOINT LowerArm_L
						{
							OFFSET 24.3286 1.87007e-05 0.0
							CHANNELS 6 Xposition Yposition Zposition Zrotation Xrotation Yrotation 
							JOINT Hand_L
							{
								OFFSET 22.2916 0.0 0.0
								CHANNELS 6 Xposition Yposition Zposition Zrotation Xrotation Yrotation 
								End Site
								{
									OFFSET 0.0 0.0 0.0
								}
							}
						}
					}
				}
				JOINT Shoulder_R
				{
					OFFSET 12.9945 -0.242716 -4.98039
					CHANNELS 6 Xposition Yposition Zposition Zrotation Xrotation Yrotation 
					JOINT UpperArm_R
					{
						OFFSET -5.34813 0.0 0.0
						CHANNELS 6 Xposition Yposition Zposition Zrotation Xrotation Yrotation 
						JOINT LowerArm_R
						{
							OFFSET -24.3289 0.000322201 0.0
							CHANNELS 6 Xposition Yposition Zposition Zrotation Xrotation Yrotation 
							JOINT Hand_R
							{
								OFFSET -22.2915 -0.000108084 0.0
								CHANNELS 6 Xposition Yposition Zposition Zrotation Xrotation Yrotation 
								End Site
								{
									OFFSET 0.0 0.0 0.0
								}
							}
						}
					}
				}
			}
		}
		JOINT UpperLeg_L
		{
			OFFSET -2.19248 -6.46944 0.0
			CHANNELS 6 Xposition Yposition Zposition Zrotation Xrotation Yrotation 
			JOINT LowerLeg_L
			{
				OFFSET 39.0811 0.0 -1.23785e-05
				CHANNELS 6 Xposition Yposition Zposition Zrotation Xrotation Yrotation 
				JOINT Foot_L
				{
					OFFSET 40.9854 0.0 -1.26872e-05
					CHANNELS 6 Xposition Yposition Zposition Zrotation Xrotation Yrotation 
					JOINT Toes_L
					{
						OFFSET 11.7543 0.0 0.0
						CHANNELS 6 Xposition Yposition Zposition Zrotation Xrotation Yrotation 
						End Site
						{
							OFFSET 0.0 0.0 0.0
						}
					}
				}
			}
		}
		JOINT UpperLeg_R
		{
			OFFSET -2.19251 6.46944 0.0
			CHANNELS 6 Xposition Yposition Zposition Zrotation Xrotation Yrotation 
			JOINT LowerLeg_R
			{
				OFFSET -39.0811 -0.00228153 -0.0401928
				CHANNELS 6 Xposition Yposition Zposition Zrotation Xrotation Yrotation 
				JOINT Foot_R
				{
					OFFSET -40.9854 0.0 0.0
					CHANNELS 6 Xposition Yposition Zposition Zrotation Xrotation Yrotation 
					JOINT Toes_R
					{
						OFFSET -11.7543 0.0 0.0
						CHANNELS 6 Xposition Yposition Zposition Zrotation Xrotation Yrotation 
						End Site
						{
							OFFSET 0.0 0.0 0.0
						}
					}
				}
			}
		}
	}
}
MOTION
Frames:	4
Frame Time:	0.0333333
0.000000 0.000000 0.000000 0.000000 0.000000 -0.000000 99.172400 90.199600 181.890000 -76.847000 53.510900 174.995000 15.735700 0.000005 -0.000001 76.666100 81.173800 -75.389700 8.984550 -0.406207 -0.000000 9.474140 -4.028850 2.885730 16.377300 -0.000001 -0.000001 7.613430 10.808600 -3.978660 6.456720 -0.000001 -0.000000 0.356095 22.889800 -4.509190 12.994200 -0.242716 4.980390 -88.555600 -3.814860 -69.242800 5.348090 -0.000007 -0.000001 -57.581100 30.488000 -24.369000 24.328600 0.000019 0.000005 5.601720 3.870910 -55.461200 22.291600 -0.000001 0.000005 6.427870 5.559880 -9.180550 12.994500 -0.242716 -4.980390 88.321000 3.713410 -65.649500 -5.348130 -0.000001 -0.000004 -67.070200 34.228100 -0.770577 -24.328900 0.000322 -0.000009 6.889780 10.893200 -32.598600 -22.291500 -0.000108 -0.000004 0.990385 5.520100 -7.365760 -2.192480 -6.469440 -0.000000 179.798000 -7.353820 -3.458200 39.081100 -0.000007 -0.000012 -0.318504 0.519434 31.516200 40.985400 -0.000006 -0.000013 7.402770 -7.384960 -73.601400 11.754300 -0.000000 0.000003 -0.000007 -0.000099 -16.581400 -2.192510 6.469440 -0.000001 179.892000 6.210560 161.610000 -39.081100 -0.002282 -0.040193 -0.001806 0.004111 50.855400 -40.985400 0.000008 0.000006 1.041380 -7.037400 -54.546900 -11.754300 -0.000006 -0.000006 -0.023120 -0.183997 -24.096900
0.000000 0.000000 0.000000 0.000000 0.000000 -0.000000 101.402000 90.343000 180.333000 -77.477900 49.451800 175.088000 15.735700 0.000005 -0.000001 72.765900 81.106500 -71.180700 8.984550 -0.406207 -0.000000 9.325620 -5.219220 3.595510 16.377300 -0.000001 -0.000001 7.274220 10.088700 -3.610560 6.456720 -0.000001 -0.000000 0.160874 22.629000 -4.330630 12.994200 -0.242716 4.980390 -88.471200 -4.172300 -69.854900 5.348090 -0.000007 -0.000001 -54.711700 30.559400 -28.180400 24.328600 0.000019 0.000005 5.695110 3.539750 -58.237100 22.291600 -0.000001 0.000005 6.642410 5.561920 -9.282240 12.994500 -0.242716 -4.980390 88.252700 3.720140 -64.819300 -5.348130 -0.000001 -0.000004 -67.471200 32.966300 1.364090 -24.328900 0.000322 -0.000009 6.667940 10.647900 -32.325600 -22.291500 -0.000108 -0.000004 0.998692 5.515870 -7.186790 -2.192480 -6.469440 -0.000000 -179.711000 -4.516160 -1.141740 39.081100 -0.000007 -0.000012 -0.310784 0.551731 29.392700 40.985400 -0.000006 -0.000013 7.394880 -6.153920 -74.313300 11.754300 -0.000000 0.000003 -0.000021 -0.000269 -16.588100 -2.192510 6.469440 -0.000001 -179.501000 4.715310 160.573000 -39.081100 -0.002282 -0.040193 0.000456 0.003299 40.537100 -40.985400 0.000008 0.000006 1.233750 -8.019620 -55.281900 -11.754300 -0.000006 -0.000006 -0.022811 -0.182388 -24.030500
0.000000 0.000000 0.000000 0.000000 0.000000 -0.000000 103.664000 90.240900 178.705000 -78.816700 45.759200 175.562000 15.735700 0.000005 -0.000001 69.361900 81.082600 -67.709200 8.984550 -0.406207 -0.000000 9.056640 -6.234650 3.799410 16.377300 -0.000001 -0.000001 6.924460 9.366150 -3.080110 6.456720 -0.000001 -0.000000 0.017796 22.325300 -4.171910 12.994200 -0.242716 4.980390 -88.381100 -4.550670 -70.392200 5.348090 -0.000007 -0.000001 -52.063800 30.422300 -31.575600 24.328600 0.000019 0.000005 5.974070 3.412170 -60.370300 22.291600 -0.000001 0.000005 6.893220 5.562430 -9.306860 12.994500 -0.242716 -4.980390 88.236200 3.611820 -63.949900 -5.348130 -0.000001 -0.000004 -67.712900 31.814000 2.771850 -24.328900 0.000322 -0.000009 6.577140 10.681000 -31.889900 -22.291500 -0.000108 -0.000004 1.057230 5.514670 -7.136160 -2.192480 -6.469440 -0.000000 -179.818000 -1.559550 0.987520 39.081100 -0.000007 -0.000012 -0.310376 0.594044 27.586800 40.985400 -0.000006 -0.000013 7.287860 -5.235270 -75.252000 11.754300 -0.000000 0.000003 -0.000019 -0.000244 -16.587100 -2.192510 6.469440 -0.000001 -179.926000 3.397420 160.022000 -39.081100 -0.002282 -0.040193 0.006006 -0.004780 29.487400 -40.985400 0.000008 0.000006 1.386890 -8.099770 -56.032800 -11.754300 -0.000006 -0.000006 -0.022661 -0.181606 -23.998200
0.000000 0.000000 0.000000 0.000000 0.000000 -0.000000 106.041000 89.899500 176.948000 -80.330900 42.403500 176.214000 15.735700 0.000005 -0.000001 66.926400 81.051000 -65.306700 8.984550 -0.406207 -0.000000 8.849840 -6.963970 3.779150 16.377300 -0.000001 -0.000001 6.626580 8.632010 -2.607340 6.456720 -0.000001 -0.000000 -0.089004 21.972300 -3.936670 12.994200 -0.242716 4.980390 -88.359000 -4.764020 -70.968700 5.348090 -0.000007 -0.000001 -49.591300 30.160600 -34.541500 24.328600 0.000019 0.000005 6.029160 3.263110 -61.678400 22.291600 -0.000001 0.000005 7.045290 5.564780 -9.423890 12.994500 -0.242716 -4.980390 88.216100 3.536610 -63.211000 -5.348130 -0.000001 -0.000004 -67.674700 30.620100 3.705930 -24.328900 0.000322 -0.000009 6.595990 10.818800 -31.638900 -22.291500 -0.000108 -0.000004 1.118340 5.512290 -7.036520 -2.192480 -6.469440 -0.000000 179.882000 0.687610 3.212980 39.081100 -0.000007 -0.000012 -0.261990 0.533966 26.135300 40.985400 -0.000006 -0.000013 7.855520 -4.192960 -76.565400 11.754300 -0.000000 0.000003 -0.366137 -0.450886 -16.295400 -2.192510 6.469440 -0.000001 179.636000 4.298070 159.717000 -39.081100 -0.002282 -0.040193 0.004722 -0.004008 19.245600 -40.985400 0.000008 0.000006 0.342878 -5.448540 -57.696600 -11.754300 -0.000006 -0.000006 -0.023418 -0.185536 -24.160500
